HIERARCHY
ROOT pelvis
{
  OFFSET 0 100 0
  CHANNELS 6 Xposition Yposition Zposition Zrotation Xrotation Yrotation
  JOINT pelvis_right_femur
  {
    OFFSET -10.78128 -3.44521 -0.5502486
    CHANNELS 3 Zrotation Xrotation Yrotation
    JOINT right_femur_tibia
    {
      OFFSET -0.8047443 -44.0398 -0.1307829
      CHANNELS 3 Zrotation Xrotation Yrotation
      JOINT right_tibia_foot
      {
        OFFSET 3.006224 -47.83518 -5
        CHANNELS 3 Zrotation Xrotation Yrotation
        End Site
        {
          OFFSET 0 -5 15
        }
      }
    }
  }
  JOINT pelvis_left_femur
  {
    OFFSET 10.78128 -3.44521 -0.5502486
    CHANNELS 3 Zrotation Xrotation Yrotation
    JOINT left_femur_tibia
    {
      OFFSET 0.8047443 -44.0398 -0.1307829
      CHANNELS 3 Zrotation Xrotation Yrotation
      JOINT left_tibia_foot
      {
        OFFSET -4.370144 -48.10324 -4.275266
        CHANNELS 3 Zrotation Xrotation Yrotation
        End Site
        {
          OFFSET 0 -5 15
        }
      }
    }
  }
  JOINT pelvis_spine1
  {
    OFFSET 0 6.468898 -3.129235
    CHANNELS 3 Zrotation Xrotation Yrotation
    JOINT spine1
    {
      OFFSET 0 23.15396 4.99043
      CHANNELS 3 Zrotation Xrotation Yrotation
      JOINT spine2
      {
        OFFSET 0 20.79997 -5.064912
        CHANNELS 3 Zrotation Xrotation Yrotation
        JOINT neck
        {
          OFFSET 0 14.38658 9.616178
          CHANNELS 3 Zrotation Xrotation Yrotation
          End Site
          {
            OFFSET 0 20 0
          }
        }
      }
      JOINT right_manubrium
      {
        OFFSET -5.722621 16.35077 3.967754
        CHANNELS 3 Zrotation Xrotation Yrotation
        JOINT right_clavicle
        {
          OFFSET -13.16364 1.694482 -4.693211
          CHANNELS 3 Zrotation Xrotation Yrotation
          JOINT right_humerus
          {
            OFFSET -28.5034 -0.3100689 -2.792744
            CHANNELS 3 Zrotation Xrotation Yrotation
            JOINT right_radius
            {
              OFFSET -25.15693 0.02248979 -1.271978
              CHANNELS 3 Zrotation Xrotation Yrotation
              End Site
              {
                OFFSET -15 0 0
              }
            }
          }
        }
      }
      JOINT left_manubrium
      {
        OFFSET 5.722621 16.35077 3.967754
        CHANNELS 3 Zrotation Xrotation Yrotation
        JOINT left_clavicle
        {
          OFFSET 13.16364 1.694482 -4.693211
          CHANNELS 3 Zrotation Xrotation Yrotation
          JOINT left_humerus
          {
            OFFSET 29.39168 -1.063119 -2.237045
            CHANNELS 3 Zrotation Xrotation Yrotation
            JOINT left_radius
            {
              OFFSET 24.59957 -0.9528479 0.9047498
              CHANNELS 3 Zrotation Xrotation Yrotation
              End Site
              {
                OFFSET 15 -0 -0
              }
            }
          }
        }
      }
    }
  }
}
MOTION
Frames: 23
Frame Time: 0.0416666666667
0 103.5113 0 0.6604604 0.7817971 0.3360962 4.007747 -16.01589 7.84975 -0 36.25491 -0 -7.206208 -17.17395 -2.453603 -7.289077 4.937787 -20.96557 -0 7.775117 -0 11.44265 -14.42973 25.48931 -3.807423 -3.952301 5.150979 2.731217 10.51977 -8.523197 0.5020051 21.6848 6.97986 2.666849 -25.09425 9.163965 6.578601 -20.84897 12.14104 86.06546 39.44209 -19.12438 -0 0 16.33749 -7.376738 9.77391 5.092167 5.342 -20.78616 -1.145461 -92.36791 24.21906 22.97105 0 0 -17.05987 11.34848 16.03507 0.8920745
0.3927644 103.4418 1.736856 0.5007932 1.424153 0.7188053 4.2986 -18.5631 7.676215 -0 36.00912 -0 -6.875655 -15.22202 -2.058406 -7.36398 6.929583 -21.21769 -0 6.963979 -0 10.94285 -15.8085 25.03888 -3.759576 -3.902498 4.934777 2.852014 10.28616 -8.569376 0.4992557 21.4028 7.3185 3.013365 -25.65403 9.321718 6.670606 -20.51659 12.14081 86.30136 39.15736 -19.85785 -0 0 15.83336 -7.39032 9.455862 5.076673 5.532411 -20.84038 -1.232617 -92.48965 24.64649 22.79355 0 0 -17.9396 10.73049 16.01104 1.665785
0.8142711 103.3591 3.869135 0.2004401 2.148788 1.112761 4.788797 -21.25261 7.284368 -0 34.04059 -0 -6.724071 -12.67736 -1.534206 -7.243428 8.52616 -20.83953 -0 7.709946 -0 9.984976 -16.91764 23.99849 -3.55192 -3.719552 4.725691 3.028971 10.15166 -8.643144 0.4592222 21.03084 7.682583 3.425177 -26.2879 9.385288 6.6981 -20.08452 12.21938 86.63248 38.76999 -20.69708 -0 0 14.92857 -7.744855 9.285154 5.257803 5.752791 -21.12546 -1.391967 -92.30549 24.63383 22.28445 0 0 -19.23564 10.37418 15.71044 2.134436
1.256903 103.2023 6.403714 -0.1173261 2.749961 1.503249 5.241128 -23.73547 6.868252 -0 31.56126 -0 -6.616247 -10.37219 -1.128937 -7.030673 9.945139 -20.3172 -0 8.508934 -0 8.7716 -17.94809 22.81359 -3.318849 -3.443938 4.48183 3.205557 9.96607 -8.69416 0.4372799 20.70779 7.986155 3.787193 -26.79425 9.406954 6.665836 -19.6212 12.26333 86.88388 38.2784 -21.38425 -0 0 14.04315 -8.168768 9.163013 5.499915 5.953774 -21.36414 -1.569096 -92.06855 24.71166 21.66009 0 0 -20.46454 9.823396 15.36622 2.797983
1.70622 102.9351 9.340697 -0.4426864 3.177536 1.870117 5.659087 -25.90058 6.44091 -0 28.64633 -0 -6.568666 -8.345296 -0.8674966 -6.726001 11.12509 -19.628 -0 9.658239 -0 7.303001 -18.7823 21.48165 -3.054483 -3.07648 4.210855 3.377125 9.756421 -8.724591 0.4337584 20.45178 8.21229 4.083457 -27.14341 9.373196 6.575218 -19.12141 12.27936 87.08314 37.69176 -21.92967 -0 0 13.15171 -8.657721 9.107347 5.788226 6.11592 -21.5642 -1.769514 -91.75861 24.84674 20.90505 0 0 -21.59058 9.123796 14.96974 3.604753
2.143224 102.5455 12.6643 -0.7538982 3.38303 2.191164 6.034876 -27.62673 6.031783 -0 25.52202 -0 -6.581239 -6.659011 -0.7767063 -6.347041 12.03463 -18.79973 -0 11.33988 -0 5.627067 -19.32815 20.05791 -2.765813 -2.631821 3.923051 3.533718 9.543107 -8.732771 0.45158 20.28501 8.346022 4.29784 -27.30671 9.280451 6.433927 -18.58815 12.26936 87.25109 37.02702 -22.33765 -0 0 12.25903 -9.183563 9.120179 6.093419 6.219171 -21.71554 -1.991731 -91.38431 25.035 20.03721 0 0 -22.5478 8.306119 14.53292 4.522122
2.546232 102.0548 16.34732 -1.027081 3.338742 2.444078 6.366949 -28.78059 5.670451 -0 22.44736 -0 -6.656257 -5.347171 -0.8598941 -5.923335 12.61343 -17.85857 -0 13.77713 -0 3.843512 -19.481 18.62813 -2.462458 -2.139903 3.643311 3.663544 9.360174 -8.718692 0.4896768 20.22194 8.380144 4.42228 -27.27173 9.129779 6.256307 -18.03212 12.24255 87.41493 36.32484 -22.62398 -0 0 11.36474 -9.719861 9.201107 6.383375 6.248344 -21.82142 -2.227084 -90.95267 25.23026 19.08705 0 0 -23.28409 7.460001 14.06635 5.453574
2.893279 101.5198 20.35798 -1.240607 3.046484 2.608396 6.661622 -29.24608 5.385944 -0 19.65961 -0 -6.789208 -4.416392 -1.097612 -5.490957 12.78747 -16.82723 -0 17.1995 -0 2.07634 -19.15244 17.29389 -2.155911 -1.63911 3.407693 3.755286 9.243266 -8.682456 0.5444387 20.26608 8.317336 4.459718 -27.04337 8.927722 6.063294 -17.46459 12.21169 87.59702 35.6445 -22.8131 -0 0 10.46541 -10.24215 9.3439 6.625486 6.196995 -21.89241 -2.458367 -90.47222 25.36456 18.09086 0 0 -23.77443 6.70176 13.57711 6.274166
3.164118 101.025 24.6657 -1.379559 2.534666 2.666429 6.930981 -28.94099 5.20456 -0 17.31762 -0 -6.962023 -3.861893 -1.456832 -5.080794 12.48026 -15.72239 -0 21.78913 -0 0.4340254 -18.29139 16.14794 -1.857159 -1.165558 3.256122 3.80012 9.217627 -8.62231 0.6118374 20.40983 8.167599 4.421904 -26.63824 8.683882 5.878656 -16.89419 12.18861 87.80245 35.04933 -22.92676 -0 0 9.564424 -10.73044 9.537898 6.792695 6.067523 -21.93736 -2.662597 -89.95712 25.37528 17.08718 0 0 -24.0213 6.130232 13.06553 6.878682
3.340938 100.6671 29.24244 -1.438185 1.839965 2.602337 7.185808 -27.81089 5.146211 -0 15.47986 -0 -7.143419 -3.69094 -1.907385 -4.704318 11.62307 -14.55752 -0 27.61489 -0 -1.02975 -16.89376 15.25292 -1.573633 -0.7415808 3.221405 3.792025 9.288562 -8.531302 0.6907714 20.6398 7.940827 4.322264 -26.07303 8.406878 5.720565 -16.32965 12.17918 88.01013 34.58003 -22.96478 -0 0 8.689026 -11.17229 9.771179 6.871206 5.865989 -21.95039 -2.818459 -89.43639 25.23955 16.12306 0 0 -24.0325 5.775371 12.52636 7.23777
3.408428 100.5361 34.0593 -1.419727 0.9874337 2.400439 7.424618 -25.80088 5.217184 -0 14.12268 -0 -7.297912 -3.938431 -2.43116 -4.345198 10.14922 -13.34638 -0 34.56547 -0 -2.325423 -14.99827 14.6387 -1.308079 -0.3707048 3.321799 3.725873 9.440272 -8.394184 0.7848707 20.94335 7.639743 4.168577 -25.35553 8.101452 5.592531 -15.79006 12.18121 88.16957 34.23394 -22.88351 -0 0 7.90779 -11.56884 10.03376 6.86964 5.596259 -21.90279 -2.913122 -88.96127 24.99017 15.26793 0 0 -23.78934 5.576638 11.95523 7.421128
3.355876 100.694 39.08043 -1.33454 -0.006998313 2.046008 7.620609 -22.83331 5.399071 -0 13.17016 -0 -7.393649 -4.668077 -3.009835 -3.962205 7.969312 -12.10342 -0 42.23893 -0 -3.490767 -12.68813 14.32065 -1.063133 -0.04374332 3.562926 3.594734 9.641726 -8.18736 0.8994385 21.30782 7.260869 3.961141 -24.48886 7.769817 5.480185 -15.32252 12.18642 88.19654 33.97119 -22.57742 -0 0 7.347503 -11.94439 10.31887 6.830889 5.262094 -21.7471 -2.940995 -88.60336 24.69591 14.62853 0 0 -23.23213 5.414261 11.35569 7.56206
3.184483 101.1484 44.25755 -1.197617 -1.101437 1.531601 7.711171 -18.83038 5.636451 -0 12.49816 -0 -7.400735 -5.960123 -3.590622 -3.501156 4.950182 -10.84315 -0 49.74175 -0 -4.518949 -10.12143 14.32115 -0.8518965 0.2454401 3.94627 3.389061 9.853737 -7.884392 1.032718 21.70824 6.806417 3.697514 -23.4927 7.417832 5.354686 -15.0242 12.18468 87.96632 33.74723 -21.8708 -0 0 7.209303 -12.35775 10.62188 6.846694 4.881604 -21.43516 -2.894186 -88.4428 24.41047 14.35724 0 0 -22.28196 5.183301 10.74283 7.774015
2.919942 101.8179 49.5293 -1.025493 -2.180684 0.8684665 7.603014 -13.80828 5.832345 -0 11.90762 -0 -7.284366 -7.877453 -4.050992 -2.910253 0.9473611 -9.580833 -0 55.49603 -0 -5.288811 -7.580769 14.66693 -0.707255 0.482617 4.472745 3.100811 10.03518 -7.469213 1.165203 22.09051 6.301602 3.380021 -22.43271 7.062553 5.1784 -15.05422 12.16808 87.32378 33.54385 -20.54113 -0 0 7.761789 -12.90744 10.93795 7.06438 4.506698 -20.94825 -2.755594 -88.54563 24.11498 14.63682 0 0 -20.89948 4.874308 10.14602 8.059044
2.622427 102.5063 54.8322 -0.8330295 -3.048967 0.09601278 7.213767 -8.024172 5.872208 -0 11.12563 -0 -7.00346 -10.38879 -4.207811 -2.156372 -4.061054 -8.329915 -0 57.46928 -0 -5.567469 -5.465985 15.34436 -0.6746194 0.6299796 5.130833 2.734242 10.15417 -6.9562 1.256868 22.36822 5.803547 3.02224 -21.43232 6.733128 4.915416 -15.59514 12.13429 86.1457 33.36735 -18.41507 -0 0 9.253391 -13.7102 11.26134 7.65439 4.224438 -20.32901 -2.510226 -88.92452 23.69565 15.60679 0 0 -19.1614 4.604921 9.607566 8.273216
2.378926 102.9361 60.12606 -0.6336903 -3.518434 -0.7232489 6.546096 -2.046423 5.687274 -0 9.93936 -0 -6.519553 -13.25339 -3.911416 -1.241761 -9.785522 -7.092269 -0 54.28922 -0 -5.168316 -4.133662 16.2421 -0.7770391 0.6535263 5.875823 2.31625 10.20575 -6.400051 1.266501 22.45384 5.384983 2.654088 -20.63236 6.457751 4.554748 -16.72849 12.08954 84.45609 33.20505 -15.53831 -0 0 11.71858 -14.83791 11.5834 8.712285 4.11413 -19.68078 -2.175769 -89.50288 23.01385 17.23703 0 0 -17.29202 4.532655 9.158218 8.234038
2.272972 102.8605 65.4199 -0.4421243 -3.551099 -1.526153 5.720277 3.439781 5.307757 -0 8.425756 -0 -5.8117 -15.98234 -3.167867 -0.2187668 -15.60016 -5.862134 -0 46.59525 -0 -4.198103 -3.670206 17.16385 -0.9810484 0.5669186 6.629319 1.888131 10.20984 -5.864718 1.189294 22.31805 5.09697 2.323031 -20.10674 6.246876 4.128956 -18.30204 12.0441 82.48658 32.98137 -12.2641 -0 0 14.83159 -16.25405 11.87574 10.15742 4.183851 -19.09888 -1.815589 -90.1479 22.0623 19.27162 0 0 -15.56614 4.668312 8.776108 7.944962
2.352517 102.173 70.77558 -0.267778 -3.28916 -2.269427 4.898374 7.984908 4.837879 -0 6.988908 -0 -4.890999 -18.02658 -2.149067 0.8013846 -20.81154 -4.666698 -0 36.86303 -0 -3.083539 -3.877611 17.93206 -1.217749 0.4363897 7.312115 1.480287 10.1722 -5.371842 1.071001 22.02203 4.948485 2.08159 -19.81739 6.096278 3.696441 -19.96178 11.99639 80.56783 32.58853 -9.091794 -0 0 18.0295 -17.81979 12.06975 11.75303 4.36643 -18.59125 -1.499059 -90.76474 21.04037 21.34079 0 0 -14.14672 4.807289 8.392843 7.670871
2.620512 100.929 76.28681 -0.1053983 -2.93597 -2.931961 4.180801 11.49544 4.386283 -0 6.145825 -0 -3.806922 -19.03832 -1.081569 1.659483 -24.95642 -3.599456 -0 27.73651 -0 -2.277918 -4.473374 18.47114 -1.43786 0.3310967 7.876789 1.100211 10.07075 -4.899918 0.9746454 21.67845 4.921463 1.964926 -19.66127 6.00326 3.307981 -21.34749 11.92957 78.95872 31.97475 -6.41172 -0 0 20.80229 -19.36444 12.08243 13.23646 4.579295 -18.0961 -1.257271 -91.32913 20.21908 23.12993 0 0 -13.0426 4.706308 7.9502 7.718634
3.049073 99.2937 82.05148 0.06138196 -2.648692 -3.50382 3.579643 14.09053 4.022344 -0 6.362385 -0 -2.637329 -18.91602 -0.1428325 2.187407 -27.86576 -2.796249 -0 20.79288 -0 -1.997055 -5.24272 18.80193 -1.632299 0.2788661 8.31044 0.7386864 9.892502 -4.423139 0.9419096 21.38628 4.993054 1.979906 -19.54554 5.971701 2.990348 -22.25253 11.82868 77.78594 31.1672 -4.402938 -0 0 22.86444 -20.76143 11.86685 14.4302 4.767325 -17.55859 -1.089476 -91.84795 19.76048 24.47348 0 0 -12.17615 4.270948 7.434542 8.212579
3.600115 97.48297 88.1483 0.2497326 -2.523963 -3.972541 3.051452 15.93096 3.770245 -0 8.050699 -0 -1.476554 -17.67949 0.5630477 2.24344 -29.53777 -2.393808 -0 16.47483 -0 -2.196976 -6.067094 18.99784 -1.817678 0.2633829 8.614523 0.3791394 9.660683 -3.934501 0.9851214 21.20531 5.144424 2.110759 -19.42018 6.009008 2.745505 -22.63816 11.69143 77.0955 30.22357 -3.091282 -0 0 24.1315 -21.95461 11.42374 15.26164 4.903652 -16.96988 -0.9929489 -92.32481 19.67536 25.34432 0 0 -11.44367 3.573128 6.880427 9.075642
4.238001 95.73274 94.61683 0.4687463 -2.630792 -4.313463 2.540571 17.09945 3.62518 -0 11.61022 -0 -0.4399447 -15.36082 0.9716054 1.7268 -29.96541 -2.506236 -0 14.6191 -0 -2.676586 -6.886306 19.14224 -2.015386 0.2433204 8.781386 0.007329803 9.437703 -3.453705 1.097488 21.16689 5.358551 2.328389 -19.27211 6.122749 2.560615 -22.56237 11.52895 76.93206 29.19832 -2.464899 -0 0 24.60229 -22.92866 10.79127 15.7171 4.972969 -16.37186 -0.9838284 -92.74042 19.87562 25.77928 0 0 -10.75354 2.784788 6.369732 10.10828
4.932505 94.28779 101.4369 0.7133186 -3.03556 -4.486325 2.008462 17.53034 3.573358 -0 17.38406 -0 0.3380561 -12.00278 1.021552 0.6061949 -29.03573 -3.192781 -0 14.8926 -0 -3.172071 -7.655748 19.29296 -2.236798 0.1733363 8.780871 -0.378546 9.320083 -3.034519 1.261365 21.28419 5.612414 2.592505 -19.10688 6.314935 2.422835 -22.11943 11.36586 77.37445 28.14466 -2.549124 -0 0 24.27945 -23.66987 10.05102 15.79922 4.95805 -15.85473 -1.104275 -93.03486 20.22801 25.81012 0 0 -10.06032 2.115639 6.022552 11.05909
